<svg xmlns="http://www.w3.org/2000/svg" width="1024" height="1024" viewBox="0 0 1024 1024">
  <defs>
    <linearGradient id="bg" x1="90" y1="924" x2="924" y2="100" gradientUnits="userSpaceOnUse">
      <stop offset="0" stop-color="#0A36C7"/>
      <stop offset="1" stop-color="#4FDFF0"/>
    </linearGradient>
    <linearGradient id="panel" x1="160" y1="735" x2="795" y2="175" gradientUnits="userSpaceOnUse">
      <stop offset="0" stop-color="#0B42CF"/>
      <stop offset="1" stop-color="#8AE8F2"/>
    </linearGradient>
    <linearGradient id="taskbar" x1="160" y1="700" x2="470" y2="740" gradientUnits="userSpaceOnUse">
      <stop offset="0" stop-color="#6AC5FF" stop-opacity="0.7"/>
      <stop offset="1" stop-color="#1E65DC" stop-opacity="0.5"/>
    </linearGradient>
    <linearGradient id="tileBlue" x1="220" y1="260" x2="554" y2="598" gradientUnits="userSpaceOnUse">
      <stop offset="0" stop-color="#B1E2FF"/>
      <stop offset="1" stop-color="#2A86F2"/>
    </linearGradient>
    <linearGradient id="tileCyan" x1="220" y1="260" x2="554" y2="598" gradientUnits="userSpaceOnUse">
      <stop offset="0" stop-color="#A4FFF2"/>
      <stop offset="1" stop-color="#23A8F2"/>
    </linearGradient>
    <linearGradient id="tileGreen" x1="222" y1="392" x2="306" y2="476" gradientUnits="userSpaceOnUse">
      <stop offset="0" stop-color="#8EFCAD"/>
      <stop offset="1" stop-color="#28C1C9"/>
    </linearGradient>
    <linearGradient id="tileYellow" x1="222" y1="514" x2="306" y2="598" gradientUnits="userSpaceOnUse">
      <stop offset="0" stop-color="#FFE97A"/>
      <stop offset="1" stop-color="#FFA300"/>
    </linearGradient>
    <linearGradient id="cameraBody" x1="458" y1="822" x2="856" y2="530" gradientUnits="userSpaceOnUse">
      <stop offset="0" stop-color="#B7D8FF"/>
      <stop offset="1" stop-color="#F3FAFF"/>
    </linearGradient>
    <radialGradient id="lens1" cx="50%" cy="50%" r="50%">
      <stop offset="0" stop-color="#0A236F"/>
      <stop offset="0.45" stop-color="#2344DE"/>
      <stop offset="0.75" stop-color="#17C5F7"/>
      <stop offset="1" stop-color="#07245F"/>
    </radialGradient>
    <linearGradient id="badge" x1="710" y1="860" x2="890" y2="700" gradientUnits="userSpaceOnUse">
      <stop offset="0" stop-color="#1A78FF"/>
      <stop offset="1" stop-color="#46E3F0"/>
    </linearGradient>
  </defs>

  <rect x="48" y="48" width="928" height="928" rx="148" fill="url(#bg)"/>
  <rect x="56" y="56" width="912" height="912" rx="144" fill="none" stroke="#87F0FF" stroke-opacity="0.35" stroke-width="6"/>

  <rect x="160" y="175" width="635" height="560" rx="34" fill="url(#panel)"/>
  <rect x="168" y="183" width="619" height="544" rx="28" fill="#FFFFFF" fill-opacity="0.08" stroke="#B7F6FF" stroke-opacity="0.45" stroke-width="2"/>
  <rect x="160" y="650" width="315" height="90" fill="url(#taskbar)"/>
  <path d="M365 740H520L498 818H320L365 740Z" fill="#1F70E3" opacity="0.9"/>
  <path d="M330 818H520" stroke="#64D8FF" stroke-width="12" stroke-linecap="round"/>

  <g fill="none" stroke="#F2FBFF" stroke-width="24" stroke-linecap="round">
    <path d="M108 255V225C108 189 137 160 173 160H222"/>
    <path d="M802 160H851C887 160 916 189 916 225V274"/>
    <path d="M222 816H173C137 816 108 787 108 751V702"/>
  </g>

  <g>
    <rect x="222" y="270" width="84" height="84" rx="16" fill="url(#tileBlue)"/>
    <rect x="346" y="270" width="84" height="84" rx="16" fill="url(#tileCyan)"/>
    <rect x="470" y="270" width="84" height="84" rx="16" fill="url(#tileCyan)"/>

    <rect x="222" y="392" width="84" height="84" rx="16" fill="url(#tileGreen)"/>
    <rect x="346" y="392" width="84" height="84" rx="16" fill="url(#tileCyan)"/>
    <rect x="470" y="392" width="84" height="84" rx="16" fill="url(#tileBlue)"/>

    <rect x="222" y="514" width="84" height="84" rx="16" fill="url(#tileYellow)"/>
    <rect x="346" y="514" width="84" height="84" rx="16" fill="url(#tileBlue)"/>

    <rect x="590" y="270" width="84" height="84" rx="16" fill="#72CFFF" opacity="0.13"/>
    <rect x="714" y="270" width="84" height="84" rx="16" fill="#72CFFF" opacity="0.12"/>
    <rect x="590" y="392" width="84" height="84" rx="16" fill="#72CFFF" opacity="0.12"/>
    <rect x="714" y="392" width="84" height="84" rx="16" fill="#72CFFF" opacity="0.11"/>
  </g>

  <g opacity="0.94">
    <rect x="210" y="672" width="16" height="16" rx="1.5" fill="#F8FDFF"/>
    <rect x="232" y="672" width="16" height="16" rx="1.5" fill="#F8FDFF"/>
    <rect x="210" y="694" width="16" height="16" rx="1.5" fill="#F8FDFF"/>
    <rect x="232" y="694" width="16" height="16" rx="1.5" fill="#F8FDFF"/>
  </g>

  <g>
    <path d="M530 575C537 550 560 530 586 530H676C702 530 724 550 732 575H798C830 575 856 601 856 633V776C856 806 832 830 802 830H512C482 830 458 806 458 776V633C458 601 484 575 516 575H530Z" fill="url(#cameraBody)"/>
    <rect x="498" y="562" width="48" height="20" rx="8" fill="#D3E5FA"/>
    <circle cx="648" cy="674" r="96" fill="#EFF8FF"/>
    <circle cx="648" cy="674" r="76" fill="#0C3AA8"/>
    <circle cx="648" cy="674" r="58" fill="url(#lens1)"/>
    <circle cx="648" cy="674" r="28" fill="#081E66" opacity="0.95"/>
    <circle cx="675" cy="648" r="14" fill="#FFFFFF"/>
    <circle cx="794" cy="604" r="18" fill="#1A88ED"/>
  </g>

  <g>
    <circle cx="798" cy="790" r="100" fill="url(#badge)"/>
    <path d="M820 844C799 860 773 867 746 864C700 860 661 824 651 779C643 743 652 706 675 677C688 660 705 646 725 637" fill="none" stroke="#F7FDFF" stroke-width="24" stroke-linecap="round" stroke-linejoin="round"/>
    <path d="M782 846L818 844L814 808" fill="none" stroke="#F7FDFF" stroke-width="24" stroke-linecap="round" stroke-linejoin="round"/>
  </g>
</svg>
